<svg xmlns="http://www.w3.org/2000/svg" xmlns:xlink="http://www.w3.org/1999/xlink" width="2400" zoomAndPan="magnify" viewBox="0 0 1800 599.999999" height="800" preserveAspectRatio="xMidYMid meet" version="1.0"><defs><g/><clipPath id="4a5c4ff373"><rect x="0" width="1225" y="0" height="594"/></clipPath><clipPath id="3121b29f94"><path d="M 155 197 L 438.335938 197 L 438.335938 492 L 155 492 Z M 155 197 " clip-rule="nonzero"/></clipPath><clipPath id="08e9927432"><path d="M 36 86 L 548.953125 86 L 548.953125 343.5 L 36 343.5 Z M 36 86 " clip-rule="nonzero"/></clipPath></defs><g transform="matrix(1, 0, 0, 1, 569, -0.000000000000034788)"><g clip-path="url(#4a5c4ff373)"><g fill="#000000" fill-opacity="1"><g transform="translate(0.836969, 472.082118)"><g><path d="M 304 0 L 287.53125 -55.125 L 150.578125 -55.125 L 134.109375 0 L 5.6875 0 L 148.3125 -390.9375 L 294.34375 -390.9375 L 436.96875 0 Z M 176.71875 -142.625 L 261.390625 -142.625 L 220.46875 -281.84375 L 218.203125 -281.84375 Z M 176.71875 -142.625 "/></g></g></g><g fill="#000000" fill-opacity="1"><g transform="translate(403.692572, 472.082118)"><g><path d="M 267.0625 -290.9375 L 267.0625 0 L 141.484375 0 L 141.484375 -290.9375 L 13.0625 -290.9375 L 13.0625 -390.9375 L 394.921875 -390.9375 L 394.921875 -290.9375 Z M 267.0625 -290.9375 "/></g></g></g><g fill="#000000" fill-opacity="1"><g transform="translate(813.936897, 472.082118)"><g><path d="M 261.390625 -390.9375 C 285.628906 -390.9375 307.21875 -385.347656 326.15625 -374.171875 C 345.101562 -363.003906 359.878906 -347.664062 370.484375 -328.15625 C 381.097656 -308.644531 386.40625 -286.769531 386.40625 -262.53125 L 386.40625 -255.140625 C 386.40625 -230.890625 381.097656 -208.914062 370.484375 -189.21875 C 359.878906 -169.519531 345.101562 -154.082031 326.15625 -142.90625 C 307.21875 -131.726562 285.628906 -126.140625 261.390625 -126.140625 L 167.625 -126.140625 L 167.625 0 L 42.046875 0 L 42.046875 -390.9375 Z M 167.625 -217.640625 L 219.34375 -217.640625 C 232.601562 -217.640625 242.546875 -221.046875 249.171875 -227.859375 C 255.796875 -234.679688 259.109375 -243.960938 259.109375 -255.703125 L 259.109375 -260.25 C 259.109375 -272.375 255.796875 -281.75 249.171875 -288.375 C 242.546875 -295.007812 232.601562 -298.328125 219.34375 -298.328125 L 167.625 -298.328125 Z M 167.625 -217.640625 "/></g></g></g></g></g><g clip-path="url(#3121b29f94)"><path fill="#000000" d="M 215.539062 203.8125 C 215.410156 201.390625 216.71875 195.800781 220.871094 197.917969 C 224.390625 204.847656 227.816406 211.957031 233.632812 217.789062 C 248.058594 233.570312 269.511719 242.8125 290.140625 251.503906 C 299.671875 255.460938 307.136719 262.425781 311.609375 270.535156 C 315.117188 276.203125 316.394531 282.617188 319.363281 288.464844 C 319.542969 289.191406 319.867188 290.664062 320.027344 291.375 C 325.390625 305.605469 331.902344 319.660156 341.398438 332.292969 C 348.070312 341.371094 359.316406 350.808594 373.097656 347.964844 C 372.984375 348.851562 372.757812 350.628906 372.644531 351.515625 C 371.078125 353.875 369.769531 356.363281 369.363281 359.09375 C 374.050781 357.105469 378.976562 355.523438 384.324219 355.832031 C 381.5625 358.011719 382.707031 360.902344 383.320312 363.601562 C 385.179688 363.554688 387.054688 363.519531 388.925781 363.503906 C 387.941406 363.390625 386.019531 363.214844 385.066406 363.101562 C 385.4375 361.695312 383.902344 359.0625 387.003906 359.273438 L 386.601562 357.753906 C 387.410156 357.980469 388.992188 358.433594 389.785156 358.65625 L 389.816406 356.589844 C 391.011719 356.703125 393.433594 356.945312 394.644531 357.074219 L 394.695312 355.507812 C 397.667969 356.171875 402.949219 353.910156 404.210938 356.992188 C 405.195312 356.960938 407.117188 356.914062 408.070312 356.882812 C 407.390625 355.507812 405.972656 354.667969 404.679688 353.796875 C 412.15625 352.550781 418.894531 355.652344 425.226562 358.527344 C 428.410156 359.917969 427.652344 355.007812 426.601562 353.8125 C 420.234375 348.042969 411.058594 344.941406 402.046875 343.554688 C 401.464844 343.085938 400.300781 342.132812 399.71875 341.664062 C 408.554688 342.40625 417.875 343.683594 425.148438 348.382812 C 429.070312 350.839844 432.191406 354.457031 432.691406 358.675781 C 432.949219 362.777344 438.34375 365.167969 438.070312 369.367188 C 438.652344 374.652344 434.324219 379.738281 428.199219 380.886719 C 428.636719 380.015625 429.523438 378.285156 429.960938 377.414062 C 431.15625 374.425781 426.957031 373.617188 424.839844 372.339844 C 419.703125 371.644531 414.53125 370.433594 409.28125 370.984375 C 403.207031 372.808594 397.585938 375.734375 393.320312 379.867188 C 384.015625 388.414062 374.324219 397.1875 368.992188 408.042969 C 378.152344 420.691406 384.808594 434.601562 388.863281 448.996094 C 387.636719 449.027344 385.195312 449.078125 383.96875 449.09375 C 385.582031 453.972656 388.816406 458.851562 394.984375 460.289062 C 401.011719 458.703125 408.457031 458.6875 413.433594 462.421875 C 419.183594 467.523438 417.539062 476.652344 410.25 480.109375 C 410.738281 477.429688 411.238281 474.730469 412.367188 472.175781 C 410.398438 468.960938 407.667969 465.925781 402.867188 466.457031 C 404.210938 468.347656 405.46875 470.304688 406.648438 472.308594 C 405.4375 475.167969 404.273438 478.074219 404.664062 481.222656 C 402.867188 479.480469 402.660156 477.089844 402.207031 474.90625 C 401.882812 477.28125 401.933594 479.691406 401.882812 482.113281 C 400.867188 478.589844 397.425781 476.441406 395.859375 473.210938 C 393.03125 467.914062 386.308594 463.792969 379.265625 464.472656 C 381.980469 462.097656 380.414062 459.300781 378.929688 456.796875 C 376.214844 456.054688 373.46875 455.359375 370.851562 454.421875 C 367.699219 445.488281 368.105469 435.667969 363.273438 427.105469 C 360.722656 422.679688 357.636719 418.316406 353.0625 415.183594 C 356.761719 421.871094 361.15625 428.351562 363.210938 435.585938 C 364.761719 442.96875 367.023438 450.222656 368.296875 457.671875 C 368.992188 463.132812 373.917969 468.007812 380.316406 469.203125 C 383.628906 469.316406 386.925781 469.542969 390.253906 469.738281 C 391.285156 470.773438 392.367188 471.789062 393.449219 472.808594 C 394.210938 474.941406 395.308594 476.992188 395.582031 479.253906 C 394.757812 483.988281 389.898438 486.894531 386.375 490.238281 C 385.566406 490.480469 383.96875 490.980469 383.160156 491.222656 C 383.226562 490.191406 383.339844 488.121094 383.386719 487.089844 C 380.722656 484.585938 378.539062 481.757812 376.035156 479.15625 C 371.546875 478.042969 365.097656 478.71875 363.757812 483.164062 C 364.953125 485.957031 367.734375 487.945312 369.785156 490.304688 C 360.640625 492.144531 353.824219 483.390625 357.507812 476.570312 C 359.914062 474.714844 363.046875 473.4375 364.777344 471.03125 C 364.550781 467.703125 362.691406 464.859375 359.65625 462.808594 C 358.445312 464.230469 357.539062 465.957031 355.84375 467.007812 C 355.082031 466.507812 353.546875 465.503906 352.789062 464.988281 C 352.175781 465.441406 350.949219 466.34375 350.332031 466.78125 C 350.496094 465.941406 350.785156 464.246094 350.929688 463.40625 C 348.363281 463.875 346.941406 465.472656 346.683594 468.21875 C 344.390625 464.925781 342.644531 461.371094 341.609375 457.65625 C 339.980469 460.191406 338.183594 462.664062 335.921875 464.84375 C 334.050781 456.070312 328.074219 448.125 328.429688 439.027344 C 327.554688 442.160156 327.167969 445.394531 326.894531 448.625 C 323.113281 441.289062 321.0625 433.324219 319.671875 425.410156 C 310.851562 429.011719 301.253906 431.628906 291.515625 432.648438 C 287.816406 443.4375 281.125 453.421875 272.226562 461.742188 C 271.464844 460.078125 270.707031 458.445312 269.929688 456.832031 C 265.617188 462.679688 258.121094 467.167969 249.835938 467.347656 C 249.691406 466.265625 249.445312 464.117188 249.316406 463.035156 C 242.726562 466.492188 235.230469 468.898438 227.363281 468.574219 C 227.414062 466.832031 227.507812 465.117188 227.621094 463.390625 C 226.765625 464.164062 225.941406 464.941406 225.117188 465.746094 C 219.898438 466.34375 214.664062 467.945312 209.367188 467.234375 C 209.238281 466.492188 208.996094 465.003906 208.882812 464.261719 C 204.328125 464.519531 199.769531 464.859375 195.230469 464.40625 C 195.003906 463.566406 194.570312 461.886719 194.34375 461.046875 C 190.613281 460.464844 186.363281 460.515625 183.40625 458.171875 C 183.019531 455.84375 185.925781 455.019531 187.640625 453.777344 C 181.515625 454.132812 175.039062 451.742188 172.082031 447.058594 C 176.152344 444.246094 182.40625 444.035156 187.363281 442.210938 C 178.316406 443.339844 165.539062 440.449219 164.878906 431.257812 C 171.453125 431.453125 177.574219 428.980469 184.101562 428.6875 C 180.351562 426.929688 175.636719 427.507812 172.113281 425.28125 C 167.980469 422.855469 163.890625 419.140625 164.019531 414.632812 C 187.847656 414.667969 212.128906 415.054688 235.359375 410.015625 C 247.832031 407.832031 259.882812 404.019531 271.433594 399.511719 C 278.863281 396.089844 286.539062 392.113281 290.949219 385.78125 C 283.066406 389.753906 274.003906 391.726562 264.972656 392.664062 C 265.214844 391.484375 265.714844 389.109375 265.957031 387.929688 C 264.230469 388.753906 262.5 389.59375 260.804688 390.484375 C 257.089844 390.953125 253.46875 390.128906 250.046875 388.980469 C 251.675781 387.316406 253.710938 385.992188 255.617188 384.570312 C 252 384.230469 248.285156 384.117188 244.777344 385.070312 C 242.792969 384.28125 240.820312 383.503906 238.898438 382.679688 C 240.644531 379.738281 243.9375 377.980469 247.332031 376.605469 C 241.304688 376.523438 235.296875 376.378906 229.300781 375.910156 C 230.707031 370.613281 237.300781 369.078125 242.066406 366.523438 C 235.039062 367.929688 227.734375 368.351562 220.949219 365.832031 C 222.339844 362.261719 226.328125 360.226562 229.785156 358.1875 C 230.011719 358.640625 230.449219 359.546875 230.691406 360.015625 C 230.578125 359.433594 230.367188 358.285156 230.273438 357.722656 C 231.0625 357.398438 232.613281 356.769531 233.40625 356.460938 C 226.960938 357.332031 219.140625 358.496094 213.90625 354.296875 C 217.089844 351.855469 219.769531 348.398438 224.441406 348.011719 L 224.554688 346.621094 C 221.257812 346.734375 217.976562 346.734375 214.699219 346.65625 C 213.792969 346.234375 212 345.410156 211.113281 344.992188 C 210.5 343.941406 209.898438 342.9375 209.300781 341.921875 C 212.890625 338.769531 217.785156 337.253906 222.273438 335.265625 C 216.863281 335.445312 211.015625 335.363281 206.507812 332.453125 C 209.851562 328.285156 213.972656 323.875 220.367188 323.375 C 215.652344 323.183594 210.820312 322.390625 206.265625 323.746094 C 205.84375 322.230469 204.648438 320.453125 206.476562 319.222656 C 210.660156 315.410156 216.039062 312.601562 221.953125 311.179688 C 210.160156 312.535156 197.945312 311.308594 187.574219 306.105469 C 187.589844 305.394531 187.589844 304.007812 187.605469 303.3125 C 193.339844 301.535156 199.414062 300.792969 205.410156 299.839844 C 206.441406 301.035156 207.769531 300.984375 207.769531 299.289062 C 210.289062 299 212.890625 298.804688 215.457031 298.609375 C 203.632812 297.558594 191.339844 296.625 180.433594 292.359375 C 178.332031 291.019531 173.890625 289.917969 175.054688 287.15625 C 184.472656 287.125 193.519531 284.054688 202.953125 284.796875 C 196.347656 283.765625 189.789062 282.503906 183.308594 281.019531 C 176.183594 279.0625 167.898438 277.722656 163.375 272.101562 C 177.058594 270.9375 190.835938 271.179688 204.585938 271.164062 C 197.007812 268.757812 188.65625 268.722656 181.03125 266.347656 C 172.277344 263.683594 160.046875 262.488281 157.269531 253.472656 C 165.796875 254.089844 174.070312 256.414062 182.710938 256.1875 C 190.949219 257.320312 199.414062 256.609375 207.605469 258.175781 C 194.539062 254.265625 180.257812 252.859375 168.058594 246.851562 C 162.792969 244.3125 157.316406 241.050781 155.394531 235.929688 C 154.085938 234.476562 157.816406 233.101562 158.898438 234.476562 C 168.707031 237.625 178.914062 239.710938 188.996094 242.183594 C 195.199219 243.101562 201.355469 245.15625 207.734375 244.765625 C 194.050781 241.230469 181.046875 235.589844 170.207031 227.625 C 165.441406 224.054688 161.242188 218.804688 162.519531 213.183594 C 169.140625 215.738281 175.28125 219.03125 181.613281 222.085938 C 193.828125 227.644531 206.589844 232.554688 220.078125 235.429688 C 207.332031 229.660156 193.421875 223.328125 186.6875 211.925781 C 184.667969 208.53125 184.183594 204.605469 185.359375 200.972656 C 188.835938 200.90625 190.789062 203.347656 193.019531 205.1875 C 201.644531 212.261719 211.015625 218.757812 221.644531 223.570312 C 218.414062 217.238281 213.972656 210.9375 215.539062 203.8125 Z M 390.65625 477.816406 C 389.769531 479.820312 389.832031 481.804688 390.816406 483.777344 C 393.289062 483.746094 392.628906 480.351562 392.835938 478.867188 C 393.191406 477.734375 391.382812 476.039062 390.65625 477.816406 Z M 390.65625 477.816406 " fill-opacity="1" fill-rule="nonzero"/></g><path fill="#000000" d="M 341.851562 225.285156 C 344.875 224.992188 347.828125 225.867188 348.78125 228.5625 C 357.734375 244.878906 372.546875 258.09375 387.152344 270.871094 C 393.871094 277.269531 404.53125 281.597656 406.570312 290.742188 C 409.265625 299.613281 400.589844 306.71875 395.84375 313.828125 C 390.851562 321.292969 384.757812 329.949219 387.261719 338.820312 C 379.460938 340.484375 371.398438 341.292969 363.660156 343.148438 C 352.59375 341.257812 348.800781 330.871094 343.597656 323.632812 C 331.691406 306.65625 327.976562 286.832031 317.832031 269.191406 C 317.167969 267.835938 316.617188 266.480469 316.167969 265.089844 C 321.417969 265.945312 325.503906 269.226562 330.527344 270.648438 C 325.003906 264.347656 318.054688 257.5625 318.429688 249.273438 C 326.101562 249.757812 330.558594 257.253906 338.007812 258.046875 C 332.09375 252.292969 327.152344 244.832031 329.105469 236.949219 C 336.035156 240.890625 342.222656 245.734375 348.136719 250.726562 C 343.257812 242.957031 338.671875 234.25 341.851562 225.285156 Z M 341.851562 225.285156 " fill-opacity="1" fill-rule="nonzero"/><g clip-path="url(#08e9927432)"><path fill="#000000" d="M 549.136719 343.175781 L 481.058594 343.175781 C 481.058594 239.261719 396.523438 154.726562 292.617188 154.726562 C 188.714844 154.726562 104.167969 239.261719 104.167969 343.175781 L 36.089844 343.175781 C 36.089844 264.929688 70.886719 192.035156 133.152344 142.148438 C 170.476562 112.261719 215.640625 93.542969 263.167969 88.28125 C 342.488281 79.5 418.667969 106.441406 474.003906 161.789062 C 522.453125 210.246094 549.136719 274.664062 549.136719 343.175781 Z M 549.136719 343.175781 " fill-opacity="1" fill-rule="nonzero"/></g></svg>