<?xml version="1.0" encoding="utf-8"?>
<!-- Generator: Adobe Illustrator 27.5.0, SVG Export Plug-In . SVG Version: 6.00 Build 0)  -->
<svg xmlns="http://www.w3.org/2000/svg" xmlns:xlink="http://www.w3.org/1999/xlink" version="1.1" x="0px" y="0px" viewBox="0 0 750 500" style="enable-;background-color:transparent;" xml:space="preserve">
<g id="BACKGROUND">
	<rect style="fill:none;" width="750" height="500" fill="none"/>
</g>
<g id="OBJECTS">
	<g>
		<g>
			<path style="fill:#B6DCFF;" d="M640.075,440.272c15.034-26.292,25.733-55.525,15.706-85.418     c-2.884-8.597-7.618-16.554-13.951-23.054c-6.154-6.317-13.342-11.422-20.023-17.14c-7.084-6.064-13.327-13.118-15.676-22.36     c-2.468-9.709-0.858-20.116,0.232-29.907c1.815-16.302,1.652-32.505-10.485-44.909c-9.238-9.442-21.743-14.85-33.785-19.747     c-12.45-5.063-25.744-9.543-36.456-17.911c-4.869-3.804-9.023-8.57-11.542-14.253c-4.527-10.209-3.492-21.563-2.563-32.385     c0.834-9.71,1.548-19.349-0.493-28.964c-1.784-8.404-5.461-16.325-10.305-23.396c-9.965-14.544-25.171-25.522-41.838-31.086     c-42.554-14.206-86.317,1.592-124.589,20.484c-20.784,10.26-41.241,21.115-62.243,30.939c-20.056,9.382-40.6,17.552-60.83,26.522     c-16.003,7.095-32.303,15.668-43.678,29.352c-12.31,14.808-14.745,33.329-15.688,51.927c-1.004,19.809-1.528,39.91-14.836,55.893     c-11.872,14.258-28.417,24.282-35.961,41.899c-17.243,40.267,15.338,87.057-8.202,125.433c-1.795,2.926-3.899,5.648-6.28,8.08     H640.075z"/>
			<g>
				<g>
					<path style="fill:#205134;" d="M182.876,307.891c5.868,4.706,13.975,9.55,15.84,17.402c2.037,8.582-5.68,15.649-9.323,22.585       c-2.194,4.178-3.09,8.822-2.376,13.509c0.786,5.155,3.033,9.87,5.714,14.295c2.861,4.722,6.266,9.097,9.54,13.535       c3.602,4.882,7.204,9.764,10.806,14.646c8.959,12.143,17.934,24.274,26.904,36.409h142.283       c1.714-29.227,2.845-58.486,4.158-87.732c0.68-15.155,2.376-31.023-1.737-45.853c-3.299-11.895-11.294-22.844-23.223-27.078       c-11.396-4.045-23.605-2.073-35.1,1.311c-3.144,0.926-6.225-1.672-5.825-4.925c1.424-11.576,1.8-23.358-2.307-34.455       c-4.325-11.686-13.732-21.486-26.549-22.975c-5.48-0.636-11.09,0.225-15.848,2.936c-2.267-14.417-7.344-28.242-14.867-40.767       c-7.942-13.221-18.713-25.651-31.666-34.179c-6.541-4.306-14.282-7.806-22.271-7.585c-7.429,0.205-14.033,3.949-18.182,10.083       c-4.019,5.941-5.797,13.057-6.92,20.049c-1.409,8.776-1.951,17.668-1.728,26.551c0.365,14.523,2.914,28.978,7.526,42.746       c0.595,1.776-0.791,3.583-2.66,3.461c-1.109-0.072-2.21-0.028-3.265,0.142c-8.885,1.428-14.2,10.47-16.102,18.507       c-2.073,8.762-1.38,18.037,1.727,26.473C170.521,295.398,175.922,302.315,182.876,307.891z"/>
					<path style="fill:#B2D855;" d="M110.295,440.272C110.295,440.272,110.295,440.272,110.295,440.272l138.468,0       c-1.431-13.04-3.223-26.066-5.04-39.05c-1.874-13.391-4.491-26.764-10.668-38.911c-2.812-5.529-6.327-10.676-10.754-15.04       c-2.199-2.168-4.64-4.219-7.729-4.917c-2.868-0.649-6.151-0.029-8.188,2.199c-0.952,1.041-1.476,2.35-2.222,3.528       c-0.35,0.552-0.756,1.146-1.34,1.474c-0.376,0.212-0.344,0.23-0.673-0.316c-0.691-1.148-0.795-2.733-1.011-4.016       c-0.275-1.625-0.543-3.252-0.857-4.869c-1.138-5.862-3.445-11.878-8.903-14.985c-5.976-3.402-13.04-1.04-17.303,3.934       c-1.409,1.644-2.421,3.483-3.149,5.438c-0.503,1.35-2.414,1.399-2.986,0.077c-0.629-1.456-1.292-2.894-1.99-4.311       c-3.054-6.193-6.937-11.965-12.193-16.503c-2.786-2.406-6.081-4.532-9.824-4.919c-3.675-0.38-7.247,1.213-9.205,4.393       c-2.117,3.437-2.15,7.429-1.672,11.323c0.508,4.139,1.227,8.259,2.046,12.347c1.464,7.302,3.373,14.525,5.757,21.584       c0.463,1.369-0.696,2.744-2.126,2.533c-2.124-0.312-4.272-0.339-6.416,0.134c-4.08,0.901-7.585,3.533-8.869,7.61       c-1.303,4.141-0.346,8.499,1.392,12.357c2.498,5.546,6.03,10.749,9.384,15.653c0.855,1.25,1.892,2.355,2.79,3.574       c0.635,0.861,0.252,2.131-0.783,2.441c-1.756,0.526-3.345,1.508-4.646,2.873c-3.543,3.715-3.95,8.777-3.514,13.674       c0.07,0.783-0.699,1.351-1.436,1.078c-2.859-1.062-5.884-1.553-9.054-0.549c-2.281,0.723-4.268,2.22-5.655,4.169       c-2.074,2.916-2.925,6.447-2.717,9.985C109.329,436.295,109.75,438.317,110.295,440.272z"/>
					<g>
						<path style="fill:#819335;" d="M268.491,440.272c0,0-26.914-197.099-85.87-166.376c-58.957,30.724-1.074,124.64,12,141.463        c13.826,17.79,26.739,24.913,26.739,24.913H268.491z"/>
						<polygon style="fill:#57661A;" points="248.665,432.236 260.41,414.578 258.745,413.47 247.725,430.039 236.483,403.776         248.384,362.286 246.462,361.736 235.237,400.865 217.066,358.415 230.265,318.762 228.368,318.131 215.881,355.645         197.65,313.053 205.245,280.062 203.296,279.613 196.315,309.935 185.497,284.661 183.658,285.449 198.525,320.182         167.189,302.961 166.226,304.713 199.802,323.165 217.907,365.462 170.955,348.808 170.286,350.693 218.978,367.964         237.984,412.366 195.491,398.107 194.855,400.003 239.038,414.829 247.837,435.384 215.945,426.85 215.428,428.782         248.837,437.721 249.929,440.272 252.105,440.272       "/>
					</g>
				</g>
				<g>
					<path style="fill:#205134;" d="M624.03,440.272c8.187-8.045,14.8-17.707,19.194-28.272c1.995-4.796,3.971-10.076,4.418-15.288       c0.21-2.448-0.066-5.014-1.378-7.14c-1.458-2.363-3.958-3.372-6.501-4.135c-2-0.6-4.367-1.128-4.827-3.518       c-0.551-2.862,1.368-5.917,2.632-8.332l9.937-18.992c1.584-3.027,3.328-6.152,3.423-9.657c0.087-3.203-1.317-6.209-4.105-7.87       c-2.926-1.743-6.261-1.78-9.546-2.127c-1.412-0.149-2.924-0.468-4.193-1.116c-1.922-0.981-2.409-3.523-1.114-5.248       c3.24-4.314,6.479-8.624,9.335-13.232c4.292-6.925,8.254-14.501,8.836-22.776c0.453-6.445-1.635-14.59-8.696-16.511       c-3.935-1.07-7.915,0.561-11.091,2.829c-3.208,2.291-6.039,5.225-8.77,8.053c-3.051,3.159-5.905,6.496-8.555,9.999       c-0.715,0.946-1.431,1.904-2.133,2.877c-0.888,1.232-2.792,0.934-3.234-0.519c-1.203-3.954-3.294-7.575-7.107-9.466       c-7.337-3.638-15.293,1.739-20.358,6.776c-5.694,5.661-9.354,12.617-11.606,20.261c-0.56,1.899-1.159,3.882-2.409,5.455       c-0.966,1.216-2.56,2.459-4.208,2.02c-1.478-0.393-2.719-1.647-3.823-2.637c-1.269-1.138-2.55-2.264-4.105-3       c-3.356-1.588-7.437-1.043-10.626,0.686c-3.508,1.902-5.867,5.115-7.706,8.574c-1.942,3.654-3.514,7.535-5.069,11.365       c-1.63,4.016-3.139,8.081-4.527,12.188c-5.497,16.262-9.106,33.186-10.793,50.267c-1.262,12.782-1.354,25.68-0.333,38.486       H624.03z"/>
					<g>
						<path style="fill:#819335;" d="M511.838,440.272c0,0,76.174-136.709,89.739-170.616s28.696-74.074,0-78.512        c-28.696-4.438-72,16.035-96.522,69.519c-24.522,53.483-77.478,179.609-77.478,179.609H511.838z"/>
						<polygon style="fill:#57661A;" points="608.459,235.531 607.478,233.231 573.565,247.698 598.508,200.869 596.3,199.694         558.31,271.019 543.424,222.471 541.034,223.204 556.65,274.135 526.542,330.663 510.554,278.818 508.166,279.554         524.885,333.773 501.408,377.85 485.91,323.257 483.505,323.941 499.713,381.033 473.516,430.217 454.894,395.786         452.695,396.976 472.106,432.865 468.16,440.272 470.993,440.272 486.898,410.413 533.366,389.697 532.348,387.413         488.809,406.824 510.169,366.721 551.813,360.246 551.428,357.776 511.639,363.962 535.703,318.782 576.074,305.613         575.298,303.236 537.398,315.599 571.692,251.214       "/>
					</g>
				</g>
			</g>
			<g>
				<g>
					<path style="fill:#C7C6E8;" d="M300.534,63.636c0,0-11.378,1.663-14.404,17.217c-2.399,12.334-9.924,39.083-13.95,40.956       h190.092V63.636H300.534z"/>
					<path style="fill:#F4FAFF;" d="M489.925,63.636c0,0,26.087-4.696,31.304,26.087s5.478,164.87,7.174,209.739       c1.696,44.87-0.652,131.348,24.587,131.348h-79.043c0,0-85.109,0-110.348,0c-25.239,0-22.891-86.478-24.587-131.348       c-1.696-44.87-3.665-178.715-7.174-209.739c-2.87-25.37-31.304-26.087-31.304-26.087H489.925z"/>
					<g>
						<polygon style="fill:#52328D;" points="371.23,232.136 371.23,238.675 506.621,232.136 506.621,227.136       "/>
						<polygon style="fill:#52328D;" points="373.186,252.604 373.186,258.114 505.056,254.154 505.056,247.094       "/>
						<polygon style="fill:#52328D;" points="375,277.288 375,284.021 505.056,283.418 505.056,273.897       "/>
						<polygon style="fill:#52328D;" points="397.165,305.181 397.165,313.027 475.729,309.104 475.729,301.679       "/>
						<polygon style="fill:#52328D;" points="447.534,324.814 447.534,330.245 506.621,327.33 506.621,318.897       "/>
						<polygon style="fill:#52328D;" points="372.425,329.167 372.383,335.036 418.164,335.366 418.198,330.67       "/>
					</g>
					<path style="fill:#E9F4FF;" d="M447.147,349.78h141.758c6.902,0,13.671,2.336,18.857,6.89c3.534,3.103,6.32,7.226,5.685,12.313       c-1.565,12.522-30.522,71.217-30.522,71.217l-129.13,0c-7.63-0.175-12.314-2.968-13.304-9.041L447.147,349.78z"/>
					<path style="fill:#52328D;" d="M604.186,369.838l-4.174,8.087l-125.478-1.565l2.543-8.348L604.186,369.838z M472.186,390.4       l-1.304,6.323l107.217-1.732l1.044-4.59H472.186z M468.012,409.49l-2.348,7.565l69.913-3.783l0.897-3.783H468.012z        M584.621,390.4l-1.044,4.59h12.783l1.304-4.59H584.621z"/>
					<path style="fill:#C7C6E8;" d="M363.599,430.81c0,0,11.401-0.978,19.37-11.923c10.534-14.468,27.391-52.642,50.478-65.555       c23.087-12.913,27.783,11.348,24.652,22.304c-3.13,10.956-17.609,55.524-17.609,55.524L363.599,430.81z"/>
					<path style="fill:#C7C6E8;" d="M453.795,440.201c0,0,13.011-0.196,17.609-7.239c5.626-8.618,18.261-31.761,18.261-31.761       l145.565,0c-2.07,20.759-12.345,32.745-27.913,39.071L453.795,440.201z"/>
				</g>
				<g>
					<g>
						<path style="fill:#ED4082;" d="M427.577,177.483l-18.196,41.239l-3.717-19.826l-18.391,8.87l23.873-41.457L427.577,177.483z         M445.382,170.394l19.37,49.38l2.935-17.29l15.62,10.533l-18.962-49.296L445.382,170.394z"/>
						<g>
							<path style="fill:#BA2B7A;" d="M464.344,163.72l-18.962,6.674l8.919,22.738c6.469-2.313,12.354-5.848,17.384-10.327         L464.344,163.72z"/>
							<path style="fill:#BA2B7A;" d="M401.501,183.059c5.434,4.768,11.845,8.448,18.902,10.686l7.175-16.262l-16.431-11.174         L401.501,183.059z"/>
						</g>
					</g>
					<g>
						<circle style="fill:#FA6886;" cx="436.447" cy="143.201" r="46.859"/>
						<path style="fill:none;" d="M436.447,103.919c-21.66,0-39.282,17.622-39.282,39.283c0,21.66,17.622,39.282,39.282,39.282        c21.66,0,39.282-17.622,39.282-39.282C475.729,121.54,458.107,103.919,436.447,103.919z M436.447,177.483        c-18.903,0-34.282-15.379-34.282-34.282s15.379-34.283,34.282-34.283c18.903,0,34.282,15.379,34.282,34.283        S455.35,177.483,436.447,177.483z"/>
						<text transform="matrix(1 0 0 1 412.4568 163.7204)" style="fill:none; font-family:'Montserrat-Bold'; font-size:60px;">C</text>
					</g>
				</g>
			</g>
			<g>
				<g>
					<path style="fill:#01265A;" d="M270.129,140.142c0,0,9.078-4.109,13.448-2.87c2.378,0.674,6.049,3.878,8.902,6.658       c2.673,2.605,4.807,5.71,6.327,9.119l5.38,12.07c-2.2,1.167-4.537,1.984-6.978,2.534c-2.144,0.483-4.156,1.43-5.926,2.733       l-7.64,5.624l-18.261-1.957L270.129,140.142z"/>
					<g>
						<path style="fill:#FFC7AE;" d="M276.73,140.664c0,0,7.63,5.185,10.957,18.196c3.326,13.011,3.326,18.391,3.326,18.391        c-3.598,1.851-7.186,3.312-10.761,4.207l2.641,12.424l7.533,1.076l-3.424,15.359l-32.087-16.044l5.381-3.326l0.685-13.5        c0,0-18.293-16.141-9.196-27.978C260.882,137.631,273.404,138.512,276.73,140.664z"/>
						<path style="fill:#FCAD97;" d="M274.529,181.702c-2.69-0.147-3.379-0.489-3.379-0.489s2.499,3.228,6.607,4.891        c1.466,0.594,2.716,0.935,3.723,1.132l-1.229-5.779C280.251,181.457,277.219,181.848,274.529,181.702z"/>
					</g>
					<g>
						<g>
							<path style="fill:#01265A;" d="M276.411,162.489c-0.732-0.485-1.996-0.899-3.855-0.111c-3.079,1.303-4.026,3.091-4.065,3.166         l0.888,0.46c0.008-0.015,0.851-1.556,3.566-2.705c2.541-1.072,3.506,0.611,3.514,0.629l0.465-0.177h0.5         C277.425,163.398,276.901,162.813,276.411,162.489z"/>
							<path style="fill:#01265A;" d="M275.39,162.559c0,0,0.753,3.784-0.788,3.612c-1.541-0.171-1.851-3.334-1.851-3.334         L275.39,162.559z"/>
						</g>
						<path style="fill:#FCAD97;" d="M289.624,167.299c-1.814,0.305-3.18,1.353-3.292,2.716c-0.143,1.738,1.799,3.315,4.348,3.551        C290.478,172.012,290.153,169.95,289.624,167.299z"/>
						<path style="fill:#FCAD97;" d="M286.077,168.414c0,0-1.957-3.817-3.132-6.068c-1.093-2.094-0.828-5.745-0.825-5.782        l-0.997-0.077c-0.012,0.161-0.29,3.971,0.936,6.321c0.891,1.707,2.233,4.316,2.827,5.473c-0.603,0.09-1.557,0.157-2.43-0.117        l-1.565-0.489l-0.298,0.954l1.565,0.489c0.577,0.181,1.173,0.241,1.71,0.241c1.032,0,1.848-0.222,1.9-0.236        c0.145-0.04,0.264-0.143,0.324-0.281C286.15,168.705,286.146,168.548,286.077,168.414z"/>
						<path style="fill:#FCAD97;" d="M266.645,174.269c-0.497-1.689,1.117-3.651,3.605-4.383c2.488-0.732,4.908,0.044,5.405,1.733        c0.497,1.689-1.117,3.651-3.605,4.383C269.561,176.734,267.141,175.958,266.645,174.269z"/>
						<path style="fill:#01265A;" d="M267.09,158.499l0.693,0.72c1.828-1.76,5.185-1.379,9.062-0.747l0.161-0.987        C272.858,156.809,269.249,156.416,267.09,158.499z"/>
						<path style="fill:#01265A;" d="M286.734,154.411c-1.165,0.122-3.281,0.571-4.358,2.219l0.837,0.547        c0.851-1.301,2.637-1.668,3.625-1.771L286.734,154.411z"/>
						<g>
							<path style="fill:#01265A;" d="M283.21,161.613l0.932,0.363c0.165-0.422,0.777-1.559,1.603-1.749         c1.03-0.238,1.994,0.416,2.002,0.422l0.285-0.406c-0.055-0.221-0.11-0.442-0.167-0.668c-0.508-0.244-1.381-0.544-2.345-0.323         C284.007,159.601,283.241,161.531,283.21,161.613z"/>
							<path style="fill:#01265A;" d="M284.784,160.62c0,0,0.383,2.495,1.19,2.446c0.807-0.049,0.538-3.228,0.538-3.228         C285.696,159.438,285.186,159.882,284.784,160.62z"/>
						</g>
						<path style="fill:none;" d="M278.706,172.82c0.62-1.585,3.227,0.281,4.615,0.289c1.388,0.008,2.297-0.73,2.734-0.159        c0.438,0.571-1.041,3.031-3.832,2.521C279.431,174.962,278.353,173.719,278.706,172.82z"/>
					</g>
					<path style="fill:#01265A;" d="M279.012,140.794c0,0-6.668,14.293-8.217,19.304c-1.376,4.448-3.652,18.261-3.652,18.261       l-13.749,0.802c-2.752,0.161-5.513-0.056-8.206-0.644l-9.089-1.984c0,0-1.174-14.217,3.131-20.478       c1.514-2.202,2.866-4.145,3.983-5.74c1.723-2.459,3.165-5.106,4.168-7.937c0.901-2.542,2.664-5.845,5.935-7.062       c5.609-2.087,14.478-2.217,19.174,0.783C277.186,139.098,279.012,140.794,279.012,140.794z"/>
				</g>
				<g>
					<g>
						<path style="fill:#FFC7AE;" d="M348.925,186.446l-4.239-1.956l3.717-10.565c0,0-2.283-5.087,2.087-8.413        c4.37-3.326,13.696-8.804,13.696-8.804s1.5,3.261-1.109,5.609c-2.609,2.348-5.217,3.587-5.217,3.587l13.957-2.217        c0,0,4.043-5.543,6.848-6.652c2.804-1.109,4.435-0.326,4.435-0.326l-2.348,7.109l3.261-0.283c0,0,2.478-2.391,4.043-2.847        c1.565-0.456,2.674-0.13,2.674-0.13l-6.391,9.913l-10.109,0.457l-16.5,5.413L348.925,186.446z"/>
						<path style="fill:#FCAD97;" d="M387.79,160.779c-1.565,0.619-3.778,2.753-3.778,2.753l-3.261,0.283l1.47-4.45        c-0.84,0.132-1.711,0.358-2.578,0.732c-4.239,1.826-7.304,6.211-7.304,6.211c-1.517-0.774-3.067-1.423-4.643-1.969        l-9.836,1.563c0,0,1.983-0.943,4.22-2.74l-7.807,3.849l6.261,2.739l12.675,1.509l1.021-0.335l8.787-0.397L387.79,160.779z"/>
						<path style="fill:#FFC7AE;" d="M354.795,189.055l4.043-11.739l19.63-3.717l7.435-13.5c0,0-4.435,0.783-7.044,3.456        c-2.609,2.674-4.435,6.326-4.435,6.326c-5.027-1.959-10.714-2.228-17.022-0.913l-8.478,17.478L354.795,189.055z"/>
					</g>
					<g>
						<path style="fill:#7A4495;" d="M307.577,196.881c6.28,5.408,10.931,14.594,15.261,24.522        c-0.889-7.011-1.45-13.785-1.174-19.956c6.171-6.225,13.445-11.865,21.261-17.217l1.304-5.017l13.174,5.147l-1.304,4.957        c0,0-0.652,32.348-7.565,42.261c-6.913,9.913-19.044,19.304-19.044,19.304c-15.789-4.981-28.442-12.467-35.87-24.131        l-2.609-19.956L307.577,196.881z"/>
						<path style="fill:#52328D;" d="M315.925,227.505c-3.13-9.68-15-19.929-15-19.929l3.261-6.954l-2.29-0.341l-10.884,6.513        l2.609,19.956c4.726,7.421,11.575,13.146,19.994,17.616C315.622,240.102,317.845,233.443,315.925,227.505z"/>
						<path style="fill:#52328D;" d="M322.838,221.403l4.957,8.283c-2.624-9.637-4.697-19.062-6.13-28.239        C321.389,207.618,321.949,214.392,322.838,221.403z"/>
					</g>
				</g>
				<g>
					<path style="fill:#FFC7AE;" d="M264.208,301.294c6.365,16.649,15.223,34.545,26.804,53.804c0,0-4.696,9.196-2.935,20.739       c1.761,11.544,11.543,37.761,11.543,37.761l-7.435,21.913h27l-10.957-20.739c1.892-23.247,5.219-45.247,10.957-65.152       c-5.968-29.379-14.296-58.041-24.652-86.087l0.587-6.065l-16.826-3.326L264.208,301.294z"/>
					<path style="fill:#FFC7AE;" d="M291.012,250.881l1.174,30.783l-10.761,16.5c-4.684,21.36-7.177,44.708-7.263,70.239       c-8.908,12.246-18.075,25.493-25.411,40.793l-7.044,27.685H221.36l18-29.739c0,0-0.685-33.554,1.859-40.989       c2.544-7.435,7.924-10.37,7.924-10.37s-14.38-31.793-12.424-48.717c1.957-16.924,20.764-34.272,20.764-34.272l14.382-20.131       L291.012,250.881z"/>
					<g>
						<path style="fill:#5189E5;" d="M319.19,349.625c-4.66,16.17-7.74,33.72-9.74,52.21c-1.54,0.61-3.26,1.23-5.13,1.85        c-2.78,0.91-5.37,1.52-7.56,1.93c-3.04-8.67-7.54-22.3-8.68-29.78c-1.76-11.54,2.93-20.74,2.93-20.74        c-11.58-19.26-20.44-37.15-26.8-53.8l14.08-47.15l16.83,3.32l-0.59,6.07C304.89,291.575,313.22,320.245,319.19,349.625z"/>
						<g>
							<path style="fill:#3469B7;" d="M297.188,354.689l-0.095-0.174c-0.043-0.078-4.357-7.949-10.028-19.072         c-5.648-11.08-12.676-46.199-12.747-46.553l-0.784,0.156c0.07,0.354,7.12,35.582,12.818,46.76         c5.212,10.224,9.282,17.705,9.945,18.921c-0.691,1.588-5.244,12.34-4.503,18.291c0.772,6.211,4.522,21.908,4.56,22.065         l0.778-0.186c-0.038-0.158-3.777-15.811-4.544-21.979c-0.756-6.078,4.467-17.93,4.521-18.049L297.188,354.689z"/>
							<path style="fill:#3469B7;" d="M293.745,396.723c5.69-1.393,11.415-3.466,17.1-6.209c0.043-0.316,0.083-0.635,0.127-0.951         c-5.81,2.843-11.662,4.978-17.475,6.397C293.579,396.215,293.662,396.469,293.745,396.723z"/>
						</g>
						<path style="fill:#3469B7;" d="M279.982,335.624l5.683-33.873l6.526-20.086l-16.34-1.827l-6.683,4.857l-4.957,16.601        C268.373,312.193,273.615,323.627,279.982,335.624z"/>
						<path style="fill:#5189E5;" d="M292.19,281.665l-10.76,16.5c-4.69,21.36-7.18,44.71-7.27,70.24        c-7.84,10.77-15.88,22.33-22.7,35.38c-1.62,0.08-3.34,0.08-5.06-0.03c-2.67-0.18-5.08-0.81-7.1-1.58        c-0.08-9.63-0.01-30.37,1.92-36.02c2.54-7.44,7.92-10.37,7.92-10.37s-14.38-31.8-12.42-48.72        c1.96-16.92,20.76-34.27,20.76-34.27l14.38-20.13l19.15-1.78L292.19,281.665z"/>
						<g>
							<path style="fill:#3469B7;" d="M247.823,307.733c0.105-22.304,26.139-51.855,26.401-52.151l-0.598-0.531         c-0.265,0.298-26.497,30.073-26.603,52.679c-0.1,21.282,6.174,46.27,6.918,49.155c-1.191,0.857-6.315,5.005-8.627,14.423         c-2.542,10.362-2.556,18.473-2.556,18.554l0.8-0.002c0-0.08,0.015-8.1,2.533-18.36c2.488-10.138,8.463-14.067,8.523-14.107         l0.246-0.158l-0.075-0.281C254.715,356.687,247.718,330.133,247.823,307.733z"/>
							<path style="fill:#3469B7;" d="M257.882,392.464c0.156-0.257,0.313-0.513,0.469-0.769         c-7.211-0.419-13.482-1.536-18.993-3.378c-0.005,0.279-0.01,0.557-0.015,0.834         C244.755,390.932,250.882,392.027,257.882,392.464z"/>
						</g>
						<path style="fill:#3469B7;" d="M294.53,263.535l0.59-6.07l-3.887-0.767l-0.152-3.955l-20.413,1.589l-13.189,18.462        c0,0-5.979,5.519-11.545,13.366c1.982,0.399,7.774,1.091,18.273-1.302c13.304-3.033,16.239-13.598,16.239-13.598        s1.37,0.391,6.163,0.88c2.922,0.298,7.217-1.22,10.132-2.451C296.008,267.638,295.286,265.581,294.53,263.535z"/>
					</g>
					<g>
						<polygon style="fill:#52328D;" points="296.286,421.436 288.925,440.272 339.012,440.272 313.19,421.764 303.664,433.099               "/>
						<g>
							<path style="fill:#F6D430;" d="M298.333,432.414c-1.111-3.238-2.578-5.201-3.84-6.388l-0.399,1.021         c1.091,1.116,2.333,2.893,3.293,5.691c0.86,2.507,1.162,5.184,1.211,7.534h1.012         C299.559,437.842,299.241,435.061,298.333,432.414z"/>
							<path style="fill:#F6D430;" d="M319.478,440.272c0.691-1.365,1.591-2.896,2.751-4.464c1.439-1.944,3.246-3.216,4.902-4.052         l-0.926-0.664c-1.63,0.893-3.358,2.201-4.779,4.12c-1.335,1.803-2.329,3.545-3.067,5.059H319.478z"/>
						</g>
					</g>
					<g>
						<path style="fill:#52328D;" d="M244.153,440.272c1.248-5.595,1.879-13.378,2.282-21.972l-7.76,5.57l-5.283-8.511        l-17.706,24.913H244.153z"/>
						<path style="fill:#52328D;" d="M215.686,440.272h28.467c0,0,4.989-22.216-2.935-22.663        C233.295,417.163,215.686,440.272,215.686,440.272z"/>
						<path style="fill:#F6D430;" d="M238.79,423.384c-4.259-1.003-11.496,3.819-16.811,8.034l-2.254,3.171        c5.099-4.341,14.191-11.315,18.835-10.232c5.102,1.202,4.112,11.586,3.467,15.916h1.019        C243.738,435.619,244.686,424.772,238.79,423.384z"/>
					</g>
				</g>
				<g>
					<path style="fill:#7A4495;" d="M310.51,231.085c-3.08,4.47-6.5,8.23-10.76,10.14c-0.96,4.53-2.22,8.37-3.91,11.22l5.16,0.99       c0.76,0.15,1.13,1.01,0.72,1.66c-2.09,3.27-3.6,6.92-4.16,11.17c-0.12,0.92-0.9,1.62-1.84,1.67c-4.1,0.24-8.03,0.32-11.06-0.42       c-1-0.25-2.05-0.14-2.99,0.31c-7.59,3.71-15.72,5.09-24.19,4.97l-1.44-2.42c-0.68-1.13-1.03-2.42-1.03-3.72       c0-0.73,0.11-1.47,0.34-2.19c0.59-1.86,1.74-3.51,3.34-4.64c0.96-0.68,1.95-1.26,3.01-1.74c0.62-0.29,0.97-0.94,0.94-1.63       c-0.2-4.91,0.37-9.56,2.04-13.84c0.39-1,0.14-2.13-0.62-2.87c-5.18-5.01-10.07-12.57-14.81-21.47l-8.72-24.52       c4.6-1.52,10.21-2.42,16.95-2.61c7.21,2.59,16.41,6.68,26.2,11.21c0.22-3.28,0.29-6.55,0.16-9.78       c9.79,0.73,18.8,1.75,23.74,4.31l-10.18,11.21c5.22,5.93,9.81,12.22,13.34,19.09C311.38,228.435,311.31,229.935,310.51,231.085       z"/>
					<g>
						<path style="fill:#52328D;" d="M298.133,252.885l-2.293-0.44c0.708-1.194,1.336-2.57,1.902-4.089        c-1.668,1.406-4.759,3.91-6.73,4.872c-2.804,1.37-3.587,1.821-3.587,1.821s6.13-0.452,9.065-1.495        C297.1,253.338,297.639,253.111,298.133,252.885z"/>
						<path style="fill:#52328D;" d="M286.708,260.109c-4.891,2.054-8.413,6.554-8.413,6.554s-1.467-2.935-6.554-7.141        c-2.98-2.464-6.623-4.084-9.136-5.007c-0.001,0.642,0.009,1.288,0.036,1.94c0.03,0.69-0.32,1.34-0.94,1.63        c-1.06,0.48-2.05,1.06-3.01,1.74c-1.6,1.13-2.75,2.78-3.34,4.64c-0.23,0.72-0.34,1.46-0.34,2.19c0,1.3,0.35,2.59,1.03,3.72        l1.44,2.42c8.47,0.12,16.6-1.26,24.19-4.97c0.94-0.45,1.99-0.56,2.99-0.31c0.376,0.092,0.766,0.171,1.168,0.238        c0.45-1.385,0.903-2.636,1.271-3.34c1.174-2.25,6.457-5.87,6.457-5.87S291.599,258.055,286.708,260.109z"/>
					</g>
					<path style="fill:#F6D430;" d="M302.642,214.486c-4.093-1.413-8.872-2.465-14.14-3.258       c-9.987,3.378-21.711,9.224-34.103,16.018c3.126,5.002,6.333,9.277,9.656,12.498c0.766,0.742,1.011,1.871,0.624,2.865       c-0.15,0.387-0.282,0.779-0.415,1.172c9.59-1.492,18.241-3.546,24.79-6.857c2.886,2.849,6.364,4.856,10.238,6.299       c0.159-0.65,0.313-1.312,0.458-1.995c4.259-1.916,7.675-5.669,10.76-10.142c0.796-1.154,0.872-2.652,0.232-3.899       C308.452,222.725,305.709,218.515,302.642,214.486z"/>
				</g>
				<g>
					<g>
						<path style="fill:#FFC7AE;" d="M237.208,275.207l7.044,6l5.022,4.761c3.707-2.209,6.893-5.823,9.587-10.761        c0,0,5.544,3.326,9.652,3.522c4.109,0.196,6.326-2.152,6.326-2.152l-4.92-4.833c3.273,2.009,6.009,2.019,8.376,0.659        l-9.196-7.63l-12.326-4.109l-9.326,14.217l-4.239-5.348L237.208,275.207z"/>
						<polygon style="fill:#FCAD97;" points="244.251,281.207 245.782,282.658 247.423,274.851 243.208,269.533 241.402,271.241         237.533,275.484       "/>
					</g>
					<g>
						<path style="fill:#7A4495;" d="M245.23,269.925l2.09,3.91l-5.22,7.83c-6.25-5.78-12.79-10.74-18.78-13.57        c-9.34-11-15.68-22.13-19.05-33.39c11.8-16.09,23.82-30.24,36.26-40.95l8.72,24.52c-4.36,6.97-10.57,12.96-18.37,18.13        l13.08,4.82C246.39,250.625,246.42,260.225,245.23,269.925z"/>
						<path style="fill:#52328D;" d="M219.648,237.071l24.312,4.154l-13.08-4.82c0.848-0.562,1.668-1.138,2.478-1.72        C229.302,235.932,224.6,236.612,219.648,237.071z"/>
					</g>
				</g>
			</g>
		</g>
		<g>
			<path style="fill:#E9F4FF;" d="M286.786,78.185c-4.644-18.913-35.035-32.446-58.905-26.674     c-26.563,6.424-41.688,28.257-38.683,49.788c3.009,21.559,27.528,34.189,54.465,29.581c6.655-1.138,12.737-3.154,18.12-5.857     l12.206,11.139l-6.399-14.51C283.072,111.412,290.88,94.859,286.786,78.185z"/>
			<g>
				<path style="fill:#F6D430;" d="M230.726,60.206c-9.79-0.558-18.179,6.927-18.736,16.717c-0.421,7.398,3.753,13.99,10.041,17.013      l4.359,21.432l11.544-1.239V93.653c5.347-2.802,9.141-8.244,9.509-14.71C248.001,69.153,240.516,60.764,230.726,60.206z"/>
				<path style="fill:#401D82;" d="M237.575,72.489c-0.1-0.087-0.247-0.098-0.36-0.025l-3.049,1.981l-2.236-1.435      c-0.118-0.074-0.271-0.06-0.372,0.038l-2.528,2.461l-2.034-1.976c-0.11-0.106-0.283-0.113-0.401-0.015l-2.07,1.722l-3.079-1.238      c-0.114-0.047-0.245-0.017-0.33,0.072c-0.084,0.09-0.105,0.222-0.053,0.334l3.112,6.613l4.298,27.609l0.593-0.092l-4.304-27.652      c-0.004-0.028-0.013-0.056-0.025-0.082l-2.806-5.961l2.536,1.02c0.101,0.041,0.219,0.022,0.304-0.048l2.001-1.663l2.05,1.991      c0.116,0.113,0.301,0.112,0.418,0l2.566-2.498l2.198,1.411c0.1,0.064,0.227,0.064,0.326-0.001l2.338-1.519l-2.04,4.402      c-0.017,0.037-0.026,0.076-0.028,0.116l-0.989,30.522l0.6,0.02l0.987-30.461l2.452-5.293      C237.708,72.72,237.676,72.576,237.575,72.489z"/>
				<path style="fill:#401D82;" d="M231.617,102.55l0.6-0.026l-1.027-23.576c-0.007-0.16-0.139-0.287-0.3-0.287h-2.984      c-0.086,0-0.167,0.036-0.224,0.1c-0.057,0.064-0.084,0.148-0.075,0.233l2.69,24.163l0.597-0.066l-2.653-23.83h2.361      L231.617,102.55z"/>
				<g>
					<polygon style="fill:#401D82;" points="222.184,98.966 239.01,96.813 239.01,115.792 225.705,116.966      "/>
					<g>
						<path style="fill:#01265A;" d="M239.01,108.996l-15.603-3.778l0.169,0.864l14.46,3.501l-13.276,2.547l0.215,1.099        c8.201,1.054,12.137,1.526,14.035,1.702v-0.796c-2.574-0.273-7.947-0.937-12.532-1.521l12.532-2.404V108.996z"/>
						<polygon style="fill:#01265A;" points="239.01,98.004 223.17,104.006 223.326,104.802 239.01,98.859       "/>
					</g>
				</g>
			</g>
			<g>
				<g>
					<path style="fill:#7A4495;" d="M249.771,88.918c-0.336-1.923-2.054-4.822-7.141-3.159c-5.087,1.663-4.533,6.82-4.533,6.82       l0.62,8.343l12.326-1.174C251.042,99.748,250.277,91.818,249.771,88.918z M241.102,98.672l-0.367-6.303       c0,0-0.328-3.896,2.682-5.152c3.01-1.256,4.027,0.933,4.226,2.386c0.3,2.191,0.753,8.182,0.753,8.182L241.102,98.672z"/>
					<path style="fill:#401D82;" d="M238.716,100.922l12.326-1.174c0,0-0.311-3.222-0.668-6.31l-2.302,0.384       c0.179,2.056,0.324,3.963,0.324,3.963l-7.294,0.887l-0.212-3.651l-2.58,0.43L238.716,100.922z"/>
				</g>
				<polygon style="fill:#7A4495;" points="235.577,97.884 254.173,96.227 258.673,120.879 236.106,124.404     "/>
				<g>
					<polygon style="fill:#7A4495;" points="251.923,96.227 255.763,121.759 258.428,122.15 261.803,120.585 257.01,95.621        253.928,95.15      "/>
					<polygon style="fill:#401D82;" points="251.923,96.227 255.763,121.759 258.428,122.15 253.928,95.15      "/>
				</g>
				<g>
					<polygon style="fill:#7A4495;" points="237.265,97.547 238.097,124.727 235.162,126.063 233.336,124.727 234.233,97.745        236.205,96.813      "/>
					<polygon style="fill:#401D82;" points="237.265,97.547 236.205,96.813 235.162,126.063 238.097,124.727      "/>
				</g>
				<g>
					<path style="fill:#01265A;" d="M249.232,115.596l-2.47-8.127c0.687-0.566,1.093-1.518,0.982-2.559       c-0.166-1.554-1.408-2.694-2.774-2.548c-1.366,0.146-2.338,1.524-2.172,3.078c0.133,1.244,0.96,2.211,1.985,2.477l-0.784,8.707       L249.232,115.596z"/>
					<path style="fill:#401D82;" d="M244.746,116.477l0.771-8.56c-1.024-0.265-1.851-1.232-1.985-2.477       c-0.161-1.504,0.749-2.833,2.046-3.049c-0.198-0.034-0.4-0.05-0.608-0.028c-1.366,0.146-2.338,1.524-2.172,3.078       c0.133,1.244,0.96,2.211,1.985,2.477l-0.784,8.707L244.746,116.477z"/>
				</g>
			</g>
		</g>
	</g>
</g>
</svg>
