<svg width="17" height="10" viewBox="0 0 17 10" fill="none" xmlns="http://www.w3.org/2000/svg">
<path d="M16.3233 0.926822L16.3232 0.926808L15.9697 0.573222C15.9697 0.573218 15.9697 0.573213 15.9697 0.573209C15.8721 0.475596 15.7138 0.475592 15.6162 0.573227C15.6162 0.573228 15.6162 0.573228 15.6161 0.573228L8.85359 7.33583L8.50004 7.68938L8.14648 7.33583L1.38388 0.573228C1.28625 0.475591 1.12803 0.475591 1.03039 0.573228L0.67679 0.926828C0.579151 1.02447 0.579151 1.18268 0.67679 1.28032L8.32329 8.92682C8.42093 9.02446 8.57915 9.02446 8.67678 8.92682L16.3233 1.28033C16.3233 1.28033 16.3233 1.28032 16.3233 1.28032C16.4209 1.18268 16.4209 1.02446 16.3233 0.926822Z" fill="#2C5CA4" stroke="#2C5CA4"/>
</svg>
